<svg width="189px" height="82px" viewBox="56 29 189 82" version="1.1" xmlns="http://www.w3.org/2000/svg" xmlns:xlink="http://www.w3.org/1999/xlink">
    <g id="Group" stroke="none" stroke-width="1" fill="none" fill-rule="evenodd" transform="translate(56.000000, 29.000000)">
        <g id="Page-1" fill="#343434">
            <path d="M31.8022274,30.5592568 C31.8993039,30.6662295 31.9921114,30.8218432 32.0292343,31.0316886 L31.7508121,31.081075 C31.7136891,30.8712295 31.7476566,30.6932523 31.8022274,30.5592568 M31.977819,31.5540659 C31.8805568,31.4470932 31.787935,31.2914795 31.7508121,31.0814477 L32.0292343,31.031875 C32.0661717,31.2419068 32.0323898,31.4200705 31.977819,31.5540659 M30.2167053,29.7441023 C29.6361021,30.1928659 29.357123,30.8443932 29.470348,31.486975 C29.5765197,32.0887432 29.977819,32.5429114 30.5506265,32.7883523 C29.9399536,32.9599932 29.5653828,33.1047977 29.5293735,33.1189614 C28.8611601,33.3813614 28.5309513,34.1378114 28.792297,34.8090932 C28.992761,35.3240159 29.4833411,35.6389705 30.002877,35.6389705 C30.1600928,35.6389705 30.3200928,35.6100841 30.4754524,35.5489568 C30.4927146,35.5422477 32.2265429,34.8709659 34.4132715,34.8020114 C35.1306729,34.7794614 35.6936427,34.1773205 35.6711833,33.4572114 C35.6490951,32.7510795 35.0720186,32.1936659 34.3733643,32.1936659 C34.3594432,32.1936659 34.3457077,32.1938523 34.3317865,32.194225 C34.1294664,32.2007477 33.9310441,32.2117432 33.7357773,32.2259068 C34.1931323,31.7974568 34.4160557,31.2305386 34.3096984,30.6267205 C34.3096984,30.6265341 34.3095128,30.6263477 34.3095128,30.6263477 C34.1961021,29.9839523 33.7114617,29.4682841 33.0126218,29.2468841 C32.5753132,29.1082295 32.0721114,29.0832568 31.5581439,29.1749477 C31.0439907,29.2664523 30.5801392,29.4630659 30.2167053,29.7441023" id="Fill-1"></path>
            <path d="M27.1175313,29.9341186 C27.2086682,29.9341186 27.3011044,29.9244277 27.3937262,29.9044868 C29.4792947,29.4510641 31.0022645,28.3192777 31.0659304,28.2713823 C31.640594,27.8395777 31.7577169,27.0220005 31.3276473,26.445205 C30.8975777,25.8682232 30.0832854,25.7508141 29.508993,26.1824323 C29.4978561,26.1908186 28.3572529,27.0255414 26.8437494,27.3542868 C26.1424965,27.5069186 25.6970209,28.2013095 25.8490394,28.9053914 C25.9806404,29.5166641 26.519109,29.9341186 27.1175313,29.9341186" id="Fill-3"></path>
            <path d="M49.1659954,31.0319123 C49.2029327,30.8218805 49.2957401,30.6662668 49.3930023,30.5592941 C49.4475731,30.6932895 49.481355,30.8714532 49.4444176,31.081485 C49.4072947,31.2915168 49.3144872,31.4471305 49.2174107,31.5541032 C49.1628399,31.4201077 49.1288724,31.2419441 49.1659954,31.0319123 M46.7817726,34.8018623 C48.9454849,34.8702577 50.7047425,35.5432168 50.7221903,35.5501123 C50.8768074,35.6103077 51.0358794,35.6390077 51.1923527,35.6390077 C51.711703,35.6390077 52.2022831,35.3238668 52.4027471,34.8089441 C52.6640928,34.1378486 52.3340696,33.3812123 51.6656705,33.1189986 C51.6296613,33.104835 51.2550905,32.9600305 50.6444176,32.7883895 C51.2172251,32.5427623 51.6185244,32.0885941 51.7246961,31.4868259 C51.8381067,30.8444305 51.5591276,30.1929032 50.9785244,29.7441395 C50.6150905,29.4631032 50.151239,29.2663032 49.6374571,29.174985 C49.1233039,29.0834805 48.6201021,29.1082668 48.1826079,29.2469214 C47.483768,29.468135 46.998942,29.9839895 46.8855313,30.626385 C46.7836288,31.204485 47.001355,31.7883623 47.4683619,32.2266895 C47.2703109,32.2121532 47.0687332,32.200785 46.8634432,32.1942623 C46.1428863,32.165935 45.5465058,32.7371395 45.5238608,33.4572486 C45.5014014,34.1773577 46.0645568,34.7793123 46.7817726,34.8018623" id="Fill-5"></path>
            <path d="M50.1291508,28.2714009 C50.1930023,28.3192964 51.7159722,29.4510827 53.801355,29.9045055 C53.8941624,29.9244464 53.9865986,29.9341373 54.0775499,29.9341373 C54.6761578,29.9341373 55.2144408,29.5166827 55.3462274,28.90541 C55.4980603,28.2013282 55.0525847,27.5067509 54.3513318,27.3543055 C52.8474803,27.0274236 51.7078051,26.1982918 51.6827471,26.1798418 C51.1084548,25.7512055 50.2965754,25.8697327 49.8674339,26.4452236 C49.4373643,27.0220191 49.5546729,27.8395964 50.1291508,28.2714009" id="Fill-7"></path>
            <path d="M39.9038329,35.9498064 C40.0250394,35.9498064 40.1482877,35.9326609 40.2704223,35.8966927 L41.6532529,35.4889291 C42.0341346,35.3767382 42.3457819,35.10092 42.494645,34.7317336 C42.6435081,34.3621745 42.6188213,33.9501245 42.4229977,33.6034882 C42.4213271,33.6005064 42.2500046,33.2807064 42.0632761,32.66757 C41.8403527,31.93572 41.6903759,31.1144155 41.6176148,30.2262064 C41.5587749,29.5083336 40.9312111,28.9747745 40.2162227,29.0331064 C39.5010487,29.0921836 38.968891,29.7220927 39.0277309,30.4403382 C39.114413,31.4964609 39.2948306,32.48717 39.564529,33.3854427 L39.5383573,33.3930836 C38.8497262,33.59622 38.4554803,34.3211745 38.6578005,35.0123973 C38.8239258,35.5809927 39.3419768,35.9498064 39.9038329,35.9498064" id="Fill-9"></path>
            <path d="M22.7159722,51.5817832 C22.6704965,51.6084332 22.6253921,51.6352695 22.5786172,51.6637832 C22.508826,51.7066468 22.4399629,51.7504423 22.3744408,51.7936786 C22.3159722,51.8318832 22.2582459,51.8712059 22.200891,51.9112741 C22.1199629,51.9677423 22.0403341,52.0258877 21.9621903,52.0853377 C19.0227935,54.3226332 18.2040464,58.4280377 20.0577819,61.6353559 C20.2988956,62.0526241 20.7347193,62.2853923 21.1827935,62.2853923 C21.404232,62.2853923 21.6284548,62.2285514 21.8337448,62.1089059 C22.4544408,61.7473605 22.6654849,60.9489786 22.3053921,60.3257786 C21.1091044,58.2560241 21.6364362,55.6074241 23.5321206,54.1644105 C23.5822367,54.1263923 23.6330951,54.0891195 23.6845104,54.0533377 C23.720891,54.0278059 23.7576427,54.0026468 23.7971787,53.9769286 C23.841355,53.9476695 23.8864594,53.9189695 23.9297077,53.8925059 C23.9603341,53.8738695 23.9911462,53.8552332 24.0223295,53.8371559 C24.6426543,53.474865 24.8531415,52.6764832 24.4923063,52.0534695 C24.1316566,51.4306423 23.3361114,51.2193059 22.7159722,51.5817832" id="Fill-11"></path>
            <path d="M58.4788306,52.0853564 C58.4006868,52.0259064 58.321058,51.9677609 58.2397587,51.9107336 C58.1827749,51.8712245 58.1250487,51.8319018 58.068993,51.7950018 C58.001058,51.7504609 57.9321949,51.7066655 57.8601763,51.6623109 C57.8156288,51.6352882 57.7705244,51.6082655 57.7250487,51.5818018 C57.1050951,51.2195109 56.3095499,51.4306609 55.9487146,52.0534882 C55.5878794,52.6765018 55.7983666,53.4748836 56.4186914,53.8369882 C56.4498747,53.8552518 56.4806868,53.8738882 56.5090858,53.8910336 C56.5545615,53.9189882 56.5994803,53.9476882 56.6462552,53.9782518 C56.6833782,54.0026655 56.7201299,54.0278245 56.7559536,54.0529836 C56.8079258,54.0891382 56.8587842,54.1264109 56.9089002,54.1644291 C58.8045847,55.6072564 59.3319165,58.2560427 58.1356288,60.3257973 C57.775536,60.9489973 57.98658,61.7473791 58.6072761,62.1089245 C58.8125661,62.22857 59.0367889,62.2852245 59.2582274,62.2852245 C59.7063016,62.2852245 60.1421253,62.05227 60.383239,61.6353745 C62.2369745,58.4280564 61.4182274,54.3226518 58.4788306,52.0853564" id="Fill-13"></path>
            <path d="M45.7566032,61.9012968 C45.2353968,61.4059423 44.413123,61.4283059 43.9197587,61.9518014 C43.4263944,62.4749241 43.4488538,63.300515 43.9700603,63.7958695 C44.3626357,64.1691559 44.6020789,64.655565 44.6609188,65.1855832 C44.6052343,65.178315 44.548993,65.1732832 44.4914524,65.1732832 C43.7736798,65.1732832 43.1921485,65.7571605 43.1921485,66.4778286 C43.1921485,66.7087332 43.1579954,66.9360968 43.0906172,67.1532105 C42.8727053,67.8550559 42.3268121,68.409115 41.6303852,68.6351741 C41.4070905,68.7074832 41.1730302,68.7443832 40.9345151,68.7443832 C40.6707564,68.7443832 40.4255592,68.8239605 40.2204548,68.9596332 C40.015536,68.8239605 39.7703387,68.7443832 39.5063944,68.7443832 C39.268065,68.7443832 39.0340046,68.7074832 38.8108956,68.6353605 C38.1142831,68.409115 37.5682042,67.8550559 37.350478,67.1535832 C37.2830998,66.9359105 37.2489466,66.7085468 37.2489466,66.4778286 C37.2489466,65.7571605 36.6672297,65.1732832 35.9496427,65.1732832 C35.8921021,65.1732832 35.8356752,65.178315 35.7801763,65.1855832 C35.8390162,64.6553786 36.0784594,64.1689695 36.4710348,63.7958695 C36.9920557,63.300515 37.0145151,62.4749241 36.5211508,61.9518014 C36.0277865,61.4284923 35.2053271,61.4061286 34.6844919,61.9012968 C33.7196659,62.8183923 33.166348,64.1091468 33.166348,65.4425786 C33.166348,67.371815 34.2913596,69.1051832 36.0389234,69.8910786 C36.58129,70.4464423 37.2548863,70.8722832 38.0118237,71.1179105 C38.4934942,71.2742695 38.9965104,71.3534741 39.5063944,71.3534741 C39.7703387,71.3534741 40.015536,71.2738968 40.2204548,71.1380377 C40.4255592,71.2738968 40.6707564,71.3534741 40.9345151,71.3534741 C41.4445847,71.3534741 41.9476009,71.2742695 42.4294571,71.1177241 C43.1862088,70.8722832 43.8598051,70.4464423 44.4021717,69.8910786 C46.1497355,69.1051832 47.2747471,67.371815 47.2747471,65.4425786 C47.2747471,64.1093332 46.7214292,62.8183923 45.7566032,61.9012968" id="Fill-15"></path>
            <path d="M75.8126032,45.2139241 L75.8126032,27.3377377 C76.354413,27.4042695 77.0165012,27.5119877 77.3134849,27.6752423 L77.3134849,44.8967332 C77.0274524,45.0607332 76.3525568,45.1578286 75.8126032,45.2139241 L75.8126032,45.2139241 Z M72.4871276,48.4641059 L64.7917216,46.8641741 C65.1074524,45.0855195 65.8139026,40.5110377 65.8111183,35.2190559 C65.8083341,30.1300241 65.0686589,26.9353786 64.7453179,25.7810423 C64.8384965,25.7806695 64.9316752,25.7700468 65.0228121,25.7495468 L72.4919536,24.0726468 C72.7597958,24.5027741 73.0920464,25.4060786 73.2139954,25.9996468 L73.2139954,46.529465 C73.0913039,47.1265741 72.7558979,48.0371468 72.4871276,48.4641059 L72.4871276,48.4641059 Z M63.2516752,54.5514877 L63.2490766,54.5811195 C63.0515824,56.8633286 62.6263387,61.7809059 59.1429049,64.5717014 C58.9658283,64.235315 58.644529,63.9822332 58.2495406,63.9020968 C57.614181,63.7729468 56.9806775,64.1367286 56.7657355,64.7504241 C56.7551555,64.7808014 55.8681021,67.2428514 53.3747378,69.4098877 C53.2282877,69.2978832 53.0560371,69.2160695 52.8659675,69.1741377 C52.2274524,69.0339923 51.5837401,69.3923695 51.364529,70.0114695 C51.3615592,70.0196695 51.0322784,70.8827195 50.1481949,71.9185286 C49.4224408,72.7689059 48.2001671,73.8699423 46.3011415,74.6709332 C46.137058,74.3088286 45.9126497,73.9478423 45.6076845,73.6651286 C45.1961763,73.2834559 44.5873596,73.2096559 44.0971508,73.4821195 C43.606942,73.7545832 43.3457819,74.3116241 43.449355,74.8643786 C43.4504687,74.8709014 43.5529281,75.5654786 43.2629977,76.3800741 C42.9908863,77.1443514 42.4637401,77.7781741 41.6891694,78.2752059 C41.5469884,78.1522059 41.376594,78.0588377 41.1865244,78.0059105 C40.7694478,77.8896195 40.3326961,77.9934241 40.011768,78.2591786 C39.6925104,77.9923059 39.2566868,77.8871968 38.8384965,78.0014377 C38.646942,78.0538059 38.4752483,78.1477332 38.3321392,78.271665 C36.3085661,76.9646968 36.5335313,75.0988241 36.5713968,74.8643786 C36.6747842,74.3116241 36.4136241,73.7545832 35.9236009,73.4821195 C35.4332065,73.2096559 34.8243898,73.2834559 34.4128817,73.6651286 C34.1075452,73.948215 33.8831369,74.3097605 33.7188677,74.6724241 C29.8213271,73.0372695 28.7031833,70.1376377 28.6562227,70.0114695 C28.436826,69.3925559 27.7938561,69.0339923 27.1545986,69.1741377 C26.964529,69.2160695 26.7922784,69.2978832 26.6458283,69.4098877 C24.152464,67.2430377 23.2657819,64.7817332 23.2565012,64.7552695 C23.0456427,64.1378468 22.4128817,63.7722014 21.7752947,63.8985559 C21.3778933,63.9775741 21.0547378,64.2325195 20.87729,64.5711423 C17.394413,61.7803468 16.9689838,56.8631423 16.7716752,54.5811195 L16.7690766,54.5516741 C16.7284269,54.0818514 16.8579861,53.6165014 17.1156195,53.306765 C21.1234153,48.4898241 26.0722784,46.574565 28.9405847,45.8317195 C29.3706543,46.2648286 29.8463852,46.650415 30.3597958,46.9813968 C24.8383109,51.3316832 23.329819,59.1488923 26.8693086,65.2728014 C27.7615592,66.8160786 28.9132993,68.1573377 30.2927889,69.2593059 C30.5318608,69.4503286 30.8173364,69.5429514 31.1009559,69.5429514 C31.4831369,69.5429514 31.8619768,69.3742923 32.1184965,69.0503923 C32.3291694,68.7846377 32.4182645,68.4616695 32.3963619,68.1476468 C32.4182645,67.8530059 32.34142,67.5494195 32.1561763,67.2905605 C31.7365012,66.7038877 31.369355,66.0743514 31.0645754,65.4190968 C30.9971972,65.2739195 30.9326032,65.1272514 30.8709791,64.9789059 C30.6101903,64.3510468 29.9176613,64.0360923 29.2834153,64.2364332 C29.2275452,64.1456741 29.1705615,64.0558468 29.1169188,63.9630377 C26.1949698,58.9077377 27.4838794,52.4371923 32.1151555,48.9124968 C32.2382181,48.8189423 32.3635081,48.7274377 32.4904687,48.6385423 C32.5801206,48.5757377 32.6710719,48.5142377 32.7629513,48.4536695 C32.870051,48.3830377 32.9788213,48.3138968 33.0903759,48.2458741 C33.1406775,48.2149377 33.1917216,48.1847468 33.2427657,48.1547423 C33.7804919,48.2632059 34.335109,48.3219105 34.9019768,48.3219105 C36.1879165,48.3219105 37.4228121,48.0377059 38.5713968,47.4780559 C38.7074524,47.4118968 38.8444362,47.3405195 38.9778933,47.2663468 C39.0398886,47.2316832 39.1015128,47.1964605 39.1609095,47.1612377 C39.2266172,47.1224741 39.291768,47.0827786 39.3563619,47.0425241 C39.3999814,47.0149423 39.4419304,46.9851241 39.4820232,46.9526968 L39.8714432,46.6384877 C39.8803527,46.6314059 39.888891,46.6241377 39.8974292,46.6168695 C40.1209095,46.4267786 40.3267564,46.2202877 40.5142274,46.0003786 C40.7016984,46.2202877 40.9073596,46.4267786 41.1310255,46.6168695 C41.1395638,46.6241377 41.1481021,46.6314059 41.156826,46.6384877 L41.5464316,46.9526968 C41.5865244,46.9851241 41.6284733,47.0149423 41.6720928,47.0425241 C41.7366868,47.0827786 41.8018376,47.1224741 41.8655035,47.1599332 C41.9267564,47.1964605 41.9883805,47.2316832 42.0494478,47.2656014 C42.1838329,47.3405195 42.3210023,47.4118968 42.4561299,47.4776832 C43.6056427,48.0377059 44.8405383,48.3219105 46.126478,48.3219105 C46.5350162,48.3219105 46.9374292,48.2917195 47.3316752,48.2345059 C47.3383573,48.2384195 47.3448538,48.2423332 47.351536,48.2462468 C47.4617912,48.3137105 47.5707471,48.3828514 47.6780325,48.4536695 C47.7699118,48.5142377 47.8608631,48.5757377 47.9499582,48.6379832 C48.0774756,48.7274377 48.2027657,48.8189423 48.3258283,48.9123105 C52.9571044,52.4373786 54.2461995,58.9077377 51.3238794,63.9630377 C51.2704223,64.0558468 51.2132529,64.1456741 51.1575684,64.2364332 C50.5233225,64.0360923 49.8306079,64.3510468 49.5700046,64.9789059 C49.5083805,65.1272514 49.4437865,65.2739195 49.3760371,65.4198423 C49.072,66.074165 48.7048538,66.703515 48.2848074,67.2905605 C48.0995638,67.5494195 48.0227193,67.8530059 48.0446218,68.1476468 C48.0227193,68.4616695 48.1118144,68.7846377 48.3224872,69.0503923 C48.579007,69.3744786 48.9576613,69.5429514 49.3400278,69.5429514 C49.6236473,69.5429514 49.909123,69.4503286 50.1481949,69.2593059 C51.5278701,68.1573377 52.6796102,66.8160786 53.5714896,65.2728014 C57.0562227,59.2437514 55.6492622,51.572465 50.3362227,47.1849059 C50.8867564,46.8647332 51.3988677,46.4838059 51.8627193,46.0501377 C54.7913503,46.925115 59.2414664,48.9035514 62.9051323,53.3069514 C63.1627657,53.6165014 63.2921392,54.0818514 63.2516752,54.5514877 L63.2516752,54.5514877 Z M30.7492158,43.9617468 C32.0988213,43.7697923 33.2648538,42.8424468 33.7424408,41.5339877 C33.7507935,41.5106923 33.7591462,41.4873968 33.766942,41.4641014 L33.857522,41.2494105 C33.9072668,41.1450468 33.964065,41.0429195 34.0262459,40.945265 C34.0873132,40.8496605 34.1552483,40.7562923 34.2283805,40.6673968 C34.7659211,40.0151241 35.5571972,39.6409059 36.3993318,39.6409059 C37.9518144,39.6409059 39.2149234,40.9089241 39.2149234,42.4678559 C39.2149234,43.2954968 38.8559443,44.0774786 38.2293086,44.6162559 L37.9174756,44.8680332 C37.8929745,44.8829423 37.8682877,44.897665 37.8428585,44.9127605 C37.8020232,44.9368014 37.7610023,44.9604695 37.7184965,44.9841377 C37.6266172,45.0352014 37.5332529,45.0840286 37.4374756,45.1304332 C36.6447146,45.5169514 35.7916288,45.7128195 34.9019768,45.7128195 C33.2882413,45.7128195 31.8111183,45.0469423 30.7492158,43.9617468 L30.7492158,43.9617468 Z M49.6475916,44.149415 C49.6167796,44.2817332 49.6073132,44.4142377 49.6167796,44.543015 C48.6393318,45.2795241 47.4274524,45.7128195 46.126478,45.7128195 C45.236826,45.7128195 44.3837401,45.5169514 43.5898654,45.1300605 C43.4952019,45.0840286 43.4018376,45.0352014 43.3088445,44.9833923 C43.2674524,44.9604695 43.2262459,44.9368014 43.1835545,44.9114559 C43.159239,44.8971059 43.135109,44.8827559 43.1109791,44.8680332 L42.7989606,44.6162559 C42.1725104,44.0774786 41.8135313,43.2953105 41.8135313,42.4678559 C41.8135313,40.9089241 43.0766404,39.6409059 44.629123,39.6409059 C45.4712575,39.6409059 46.2625336,40.0151241 46.8002599,40.6677695 C46.8732065,40.7562923 46.9411415,40.8496605 47.00258,40.9460105 C47.0645754,41.0429195 47.1210023,41.1450468 47.1709327,41.2495968 L47.2611415,41.4635423 C47.2693086,41.4872105 47.2776613,41.5106923 47.2861995,41.5343605 C47.7008631,42.6709923 48.6359907,43.5195059 49.7595174,43.8486241 C49.7114432,43.9421786 49.672464,44.0422559 49.6475916,44.149415 L49.6475916,44.149415 Z M17.7851323,46.9793468 C17.6139954,46.0881559 16.6966868,41.0418014 16.6996566,35.2205468 C16.7028121,29.3379786 17.7574756,26.1882468 17.7667564,26.160665 C17.8150162,26.0221968 17.839703,25.8764605 17.839703,25.7297923 C17.839703,25.4629195 17.7953411,25.2057377 17.7158979,24.9636514 C19.2559443,23.1238695 21.302348,22.2039786 24.2391462,22.0151923 C24.9220232,21.9712105 25.4972436,21.9272286 26.0854571,21.8549195 L26.3107935,21.8273377 C29.1945058,25.1414423 33.5458747,27.1409377 38.2690302,27.1409377 C39.8400742,27.1409377 41.3903295,26.9200968 42.8765476,26.4847514 C42.9996102,26.4487832 43.122116,26.4109514 43.2438794,26.3721877 C43.2589142,26.3675286 43.2741346,26.3623105 43.2889838,26.3569059 L43.5440186,26.265215 C43.5590534,26.2598105 43.5740882,26.2542195 43.589123,26.2480695 C43.8207703,26.1547014 44.0505615,26.0501514 44.2723712,25.9368423 C44.6881485,25.7242014 45.0890766,25.4744741 45.4638329,25.1949286 C46.8663387,24.1490559 47.8781253,22.7200195 48.4113968,21.1126332 C51.0640186,21.3921786 53.5958051,21.6966968 54.8817448,21.8549195 C55.469587,21.9272286 56.0448074,21.9712105 56.7276845,22.0151923 C59.4176148,22.1881377 60.912,22.8271786 62.3816984,24.5368786 C62.184761,24.8933923 62.072464,25.2991059 62.072464,25.7297923 C62.072464,25.8740377 62.097522,26.0208923 62.1441114,26.1571241 C62.1546914,26.1882468 63.209355,29.3379786 63.2125104,35.2205468 C63.2158515,41.6087195 62.1105151,47.0660059 62.0993782,47.1202377 C62.0815592,47.2068968 62.072464,47.2956059 62.072464,47.3841286 C62.072464,47.7223786 62.1617448,48.040315 62.3167332,48.3187423 C62.1836473,48.4221741 62.0451787,48.5187105 61.9068956,48.6035059 C58.9834617,46.1064195 55.939007,44.6703014 53.5505151,43.8530968 C54.0180789,42.9760695 54.3373364,42.0045559 54.4711647,40.9694923 C54.5173828,40.734115 54.5415128,40.4909105 54.5415128,40.242115 C54.5415128,40.1923559 54.5405847,40.1427832 54.5387285,40.0932105 C54.5390998,40.0820286 54.5392854,40.0706605 54.539471,40.0594786 C54.5409559,39.9974195 54.5415128,39.9351741 54.5415128,39.8729286 C54.5415128,39.6942059 54.5056891,39.5238695 54.4410951,39.368815 C54.1643434,38.1895059 53.3340882,37.2064377 52.1715824,36.7463059 C51.9711183,36.6671014 51.7628585,36.6050423 51.552,36.5616195 C51.3058747,36.5113014 51.0528817,36.4855832 50.8000742,36.4855832 C50.0824872,36.4855832 49.5007703,37.0696468 49.5007703,37.7901286 C49.5007703,38.5106105 50.0824872,39.0946741 50.8000742,39.0946741 C50.8785893,39.0946741 50.9567332,39.1025014 51.0319072,39.1179695 C51.0952019,39.1308286 51.1583109,39.1498377 51.219007,39.1736923 C51.6234617,39.3337786 51.8961299,39.7012877 51.937522,40.1286195 C51.936594,40.1515423 51.9354803,40.174465 51.934181,40.1973877 C51.9310255,40.2531105 51.9273132,40.3086468 51.9226729,40.3638105 C51.9182181,40.4191605 51.9128353,40.4745105 51.90671,40.5293014 C51.7793782,41.0237241 51.3314896,41.3895559 50.8000742,41.3895559 C50.322116,41.3895559 49.8905615,41.0870877 49.7262923,40.6370195 L49.7132993,40.5993741 C49.7016056,40.5632195 49.6884269,40.5276241 49.6735777,40.4925877 L49.5531137,40.2070786 C49.5468028,40.1917968 49.5401206,40.1768877 49.5330673,40.1619786 C49.4326497,39.946915 49.3173828,39.7368832 49.1904223,39.5384059 C49.0727425,39.3539059 48.9420696,39.174065 48.8024872,39.0048468 C47.7695406,37.7508059 46.2486125,37.031815 44.629123,37.031815 C42.9834617,37.031815 41.5080093,37.7737286 40.5142274,38.9407377 C39.5204455,37.7737286 38.044993,37.031815 36.3993318,37.031815 C34.7798422,37.031815 33.2587285,37.7508059 32.2261531,39.0044741 C32.0861995,39.174065 31.9555267,39.3539059 31.8384037,39.5376605 C31.7110719,39.7368832 31.5956195,39.946915 31.4952019,40.1619786 C31.4883341,40.1768877 31.481652,40.1917968 31.4751555,40.2070786 L31.3546914,40.4925877 C31.3403991,40.5265059 31.3275916,40.5607968 31.3162691,40.5960195 L31.3021624,40.6366468 C31.1378933,41.0870877 30.7063387,41.3895559 30.2283805,41.3895559 C29.6967796,41.3895559 29.2490766,41.0237241 29.1217448,40.5293014 C29.1154339,40.4741377 29.1102367,40.4187877 29.1055963,40.3621332 C29.1009559,40.3079014 29.0972436,40.2536695 29.0942738,40.1973877 C29.0929745,40.174465 29.0918608,40.1515423 29.0909327,40.1286195 C29.1321392,39.7012877 29.404993,39.3337786 29.808891,39.1738786 C29.8699582,39.1498377 29.9332529,39.1308286 29.9959907,39.1179695 C30.071536,39.1025014 30.1496798,39.0946741 30.2283805,39.0946741 C30.9459675,39.0946741 31.5276845,38.5106105 31.5276845,37.7901286 C31.5276845,37.0696468 30.9459675,36.4855832 30.2283805,36.4855832 C29.9755731,36.4855832 29.72258,36.5113014 29.4757123,36.5616195 C29.2655963,36.6050423 29.0571508,36.6671014 28.8563155,36.7464923 C27.694181,37.2064377 26.8641114,38.1895059 26.5873596,39.368815 C26.52258,39.5238695 26.4867564,39.6942059 26.4867564,39.8729286 C26.4867564,39.9351741 26.4874988,39.9974195 26.4887981,40.0581741 C26.4891694,40.0697286 26.489355,40.0816559 26.4895406,40.0932105 C26.4878701,40.1427832 26.4867564,40.1923559 26.4867564,40.242115 C26.4867564,40.4907241 26.5110719,40.734115 26.5571044,40.9694923 C26.676826,41.8960923 26.9452251,42.771815 27.3353875,43.5742968 C24.9990534,44.2817332 21.8215128,45.6159105 18.7187749,48.101815 C18.3952483,47.7605832 18.0707935,47.3701514 17.7851323,46.9793468 L17.7851323,46.9793468 Z M7.42503944,48.4641059 C7.15645476,48.0371468 6.82086311,47.1267605 6.69817169,46.529465 L6.69817169,25.9998332 C6.82012065,25.4064514 7.15237123,24.5025877 7.42039907,24.0726468 L14.8891694,25.7495468 C14.9804919,25.7700468 15.0736705,25.7806695 15.1668492,25.7810423 C14.8435081,26.9353786 14.1038329,30.1300241 14.1010487,35.2190559 C14.0984501,40.4653786 14.792464,45.0050105 15.1119072,46.8160923 C15.10671,46.8334241 15.1024408,46.851315 15.0979861,46.8690195 L7.42503944,48.4641059 Z M2.59868213,27.6752423 C2.89566589,27.5119877 3.55775406,27.4042695 4.09956381,27.3375514 L4.09956381,45.2139241 C3.55961021,45.1578286 2.88471462,45.0607332 2.59868213,44.8967332 L2.59868213,27.6752423 Z M10.036826,14.4451014 L10.2779397,16.6427014 L9.67988863,14.4451014 L10.036826,14.4451014 Z M27.3676845,2.79551045 L53.5410487,2.79551045 C58.0997494,2.79551045 62.0856427,5.951765 63.648891,10.7185741 C61.2867564,7.140765 57.4714432,4.93850591 53.3632297,4.93850591 L27.5453179,4.93850591 C23.4374756,4.93850591 19.6225336,7.14039227 17.2602135,10.7178286 C18.8236473,5.95139227 22.8091694,2.79551045 27.3676845,2.79551045 L27.3676845,2.79551045 Z M71.174645,13.8860105 L71.5315824,13.8860105 L70.9335313,16.0836105 L71.174645,13.8860105 Z M43.9141346,23.1005741 C43.6557587,23.2932741 43.3793782,23.4652877 43.0929745,23.6117695 C42.9472668,23.686315 42.7961763,23.7554559 42.6434153,23.817515 L42.4353411,23.8926195 C42.3404919,23.9226241 42.2452715,23.9516968 42.149123,23.9800241 C40.899007,24.3462286 39.5935777,24.5318468 38.2690302,24.5318468 C35.1161763,24.5318468 32.1665708,23.4787059 29.8853643,21.6601695 C32.0986357,21.4197605 33.9978469,19.9176695 34.7128353,17.7252877 C34.7727889,17.5415332 34.8242042,17.3521877 34.8654107,17.1617241 C34.8694942,17.146815 34.8733921,17.1317195 34.8769188,17.1166241 C34.9051323,16.997165 34.9376148,16.876215 34.9734385,16.7586195 C35.0087053,16.6428877 35.0478701,16.5279014 35.0896334,16.4166423 C35.1401206,16.2815286 35.1969188,16.1462286 35.2578005,16.0146559 C36.2285661,13.9225377 38.336594,12.6159423 40.6411879,12.6714786 C43.5785429,12.7499377 46.0336705,15.1124695 46.2306079,18.0503059 C46.3635081,20.0317241 45.4976148,21.9197741 43.9141346,23.1005741 L43.9141346,23.1005741 Z M64.62671,23.1648695 C62.6127889,20.672815 60.4511183,19.6401741 56.8938097,19.4115059 C56.2560371,19.3703195 55.7236937,19.3298786 55.1978469,19.2652105 C53.9291694,19.1090377 51.4547378,18.811415 48.8394246,18.5344786 C48.841652,18.3156877 48.8383109,18.095965 48.8234617,17.8753105 C48.5374292,13.608515 44.9736241,10.1770014 40.7102367,10.0635059 C37.3756659,9.97274682 34.3104223,11.8777559 32.9021624,14.9132468 C32.8134385,15.1046423 32.7310255,15.3012559 32.657522,15.4974968 C32.596826,15.6592605 32.5402135,15.8264286 32.4887981,15.994715 C32.4433225,16.1438059 32.4019304,16.2951332 32.3648074,16.4462741 C32.3532993,16.484665 32.3434617,16.5239877 32.3352947,16.5640559 C32.3113503,16.6820241 32.2805383,16.7994332 32.2434153,16.913115 C31.7845754,18.3196014 30.4325568,19.2076241 28.9554339,19.0710195 C27.9549698,18.9787695 27.0781253,18.3926559 26.5725104,17.5638968 C26.5101439,17.4371695 26.4500046,17.3089514 26.3920928,17.1792423 C26.342348,17.0681695 26.294645,16.9559786 26.2484269,16.8432286 C26.1855035,16.636365 26.1437401,16.4213014 26.1257355,16.2004605 C26.0650394,15.4602241 26.2513968,14.7498059 26.6643898,14.1465468 C26.8180789,13.9223514 27.0003527,13.7180968 27.2061995,13.5397468 C27.4309791,13.3449968 27.6810023,13.1837923 27.939007,13.0648923 C28.0602135,13.0153195 28.4778469,12.9098377 28.6350626,12.8701423 C28.7256427,12.8472195 28.8032297,12.8276514 28.8579861,12.8127423 C29.8382181,12.5469877 29.9510719,11.6977286 29.8738561,11.285865 C29.7825336,10.7988968 29.3017912,10.1164332 28.3540418,10.238315 C27.0731137,10.4008241 26.1738097,10.3055923 26.1689838,10.3048468 C25.7496798,10.2556468 25.3326032,10.4144286 25.0508399,10.730315 C23.9228585,11.9947923 23.4430441,13.8082968 23.2572436,14.7766423 C23.1620232,15.2736741 23.1809559,15.7899014 23.3121856,16.2697877 C23.3129281,16.2725832 23.3136705,16.2751923 23.314413,16.2778014 C23.4530673,16.7815423 23.6219768,17.2813695 23.8183573,17.7694559 C23.9313968,18.1009968 24.0743202,18.4193059 24.2436009,18.7217741 C24.3527425,18.9437332 24.4694942,19.1610332 24.5894014,19.3759105 C24.4236473,19.3882105 24.2532529,19.399765 24.0730209,19.4115059 C20.4294014,19.6459514 17.7615592,20.8712923 15.7654571,23.2382968 C15.6264316,23.2077332 15.484065,23.1853695 15.3378005,23.1767968 L15.3101439,23.1706468 L18.3958051,14.0925014 C20.0585429,10.1149423 23.6457355,7.54759682 27.5453179,7.54759682 L53.3632297,7.54759682 C57.2628121,7.54759682 60.8501903,10.1149423 62.5129281,14.0925014 L65.5278701,22.9628514 L64.62671,23.1648695 Z M79.9120928,27.4914877 C79.9120928,25.1874741 77.0835081,24.8328241 75.5612807,24.6855968 C75.193949,23.4231695 74.3481021,21.3791332 72.7237865,21.3791332 C72.6285661,21.3791332 72.5333457,21.3897559 72.4403527,21.4106286 L72.1611879,21.4734332 L74.3906079,13.2780923 C74.4034153,13.2316877 74.4134385,13.1845377 74.4208631,13.137015 C74.4928817,12.6768832 74.3603527,12.2087377 74.057058,11.8525968 C73.7455963,11.486765 73.2887981,11.2769195 72.8039722,11.2769195 L70.3469884,11.2769195 C69.4725568,11.2769195 68.7508863,11.9366468 68.6807239,12.7887014 L67.8846218,20.0451423 L66.3855963,10.8290877 C66.3781717,10.7839877 66.3685197,10.7394468 66.3566404,10.6952786 C65.5278701,7.65140136 63.8710719,5.03578773 61.5648074,3.13115136 C59.232,1.20471045 56.4574292,0.186419545 53.5410487,0.186419545 L27.3676845,0.186419545 C24.4513039,0.186419545 21.6767332,1.20471045 19.3439258,3.13115136 C17.0376613,5.03578773 15.3806775,7.65140136 14.5520928,10.6952786 C14.544297,10.724165 14.5374292,10.7530514 14.5316752,10.7821241 L13.0571508,18.1457241 L12.5307471,13.3477923 C12.4605847,12.4957377 11.7389142,11.8360105 10.8644826,11.8360105 L8.40768445,11.8360105 C7.92267285,11.8360105 7.46587471,12.0458559 7.15441299,12.4116877 C6.85111833,12.7678286 6.71858933,13.2359741 6.79060789,13.6961059 C6.79803248,13.7436286 6.80805568,13.7907786 6.82086311,13.8371832 L8.97288167,21.7477605 L7.472,21.4106286 C7.37882135,21.3897559 7.28378654,21.3791332 7.18838051,21.3791332 C5.56387935,21.3791332 4.7182181,23.4231695 4.35088631,24.6855968 C2.82865893,24.8328241 7.42459397e-05,25.1876605 7.42459397e-05,27.4914877 L7.42459397e-05,45.0378105 C7.42459397e-05,45.7076014 0.272742459,46.9172877 2.09937819,47.490915 C2.84889095,47.7261059 3.69585151,47.8053105 4.35478422,47.8573059 C4.72415777,49.1204786 5.56963341,51.150165 7.18838051,51.150165 C7.27691879,51.150165 7.36527146,51.1410332 7.4519536,51.1229559 L15.9744594,49.3510105 C16.0856427,49.3422514 16.1936705,49.3232423 16.2992854,49.2977105 C16.4550162,49.4827695 16.6140882,49.6622377 16.7750162,49.8342514 C16.2126032,50.3901741 15.6590998,50.9874695 15.1211879,51.633965 C14.4229049,52.4733468 14.0800742,53.6191105 14.1803063,54.7775468 L14.1827193,54.8069923 C14.4292158,57.654815 15.0836937,65.2198741 21.7914432,68.1347877 C21.9146914,68.1882741 22.0431369,68.2216332 22.1725104,68.2350514 C23.1878237,69.7626741 24.8438794,71.6647014 27.3932993,73.1205741 C27.4480557,73.1516968 27.504297,73.1787195 27.5614664,73.2012695 C28.7323248,74.710815 30.790051,76.5841423 34.2105615,77.6151059 C34.2955731,77.6408241 34.3822552,77.6574105 34.4693086,77.6652377 C35.0662459,79.0033286 36.2526961,80.3550241 38.4013735,81.2197514 C38.6385893,81.6088786 39.0591926,81.8446286 39.5063387,81.8446286 C39.649819,81.8446286 39.7957123,81.8205877 39.9386357,81.7698968 C39.9633225,81.7611377 39.9861531,81.7492105 40.0104687,81.7397059 C40.0345986,81.7492105 40.0572436,81.7609514 40.0817448,81.7697105 C40.2248538,81.8205877 40.3709327,81.8446286 40.5145986,81.8446286 C40.962116,81.8446286 41.3834617,81.6085059 41.6208631,81.2190059 C43.7684269,80.3546514 44.9543202,79.0029559 45.5512575,77.6652377 C45.6383109,77.6574105 45.724993,77.6408241 45.8100046,77.6151059 C49.2305151,76.5841423 51.2882413,74.710815 52.4590998,73.2012695 C52.5164548,73.1787195 52.5725104,73.1516968 52.6272668,73.1205741 C55.1766868,71.6647014 56.8327425,69.7626741 57.8480557,68.2350514 C57.9774292,68.2216332 58.1060603,68.1882741 58.2293086,68.1347877 C64.9368724,65.2198741 65.591536,57.654815 65.8378469,54.8069923 L65.8404455,54.7773605 C65.9406775,53.6191105 65.5976613,52.4731605 64.8993782,51.6341514 C64.5507935,51.2152059 64.1951555,50.818065 63.8354339,50.4376968 C64.2083341,50.1546105 64.5450394,49.8426377 64.8219768,49.5349514 L72.4603991,51.1229559 C72.5470812,51.1410332 72.6352483,51.150165 72.7237865,51.150165 C74.3421624,51.150165 75.1878237,49.1204786 75.5573828,47.8573059 C76.2163155,47.8053105 77.0632761,47.7261059 77.8127889,47.490915 C79.6394246,46.9171014 79.9120928,45.7076014 79.9120928,45.0378105 L79.9120928,27.4914877 Z" id="Fill-17"></path>
        </g>
        <g id="Page-1" transform="translate(97.000000, 24.000000)" fill="#343434">
            <path d="M20.9345602,5.33963636 L21.152762,5.68581818 C23.6121049,9.77018182 23.2494075,14.988562 20.2590098,18.6846942 C18.0899839,21.3660826 14.8564622,22.9044628 11.3872403,22.9055207 L11.3869752,22.9055207 C8.79612795,22.9055207 6.25963228,22.0119008 4.24517695,20.3888926 C0.580289337,17.4396033 -0.878719308,12.6372231 0.52805879,8.15431405 C0.725580403,7.52647934 0.977453602,6.91636364 1.27651988,6.34036364 C1.62834697,5.66122314 2.05255447,5.01302479 2.5369464,4.41533884 C3.73983977,2.92773554 5.30834697,1.76066116 7.07331527,1.04052893 C7.98005879,0.670545455 8.93213948,0.417719008 9.90277925,0.28892562 C11.6269176,0.0741818182 13.2100069,1.2867438 13.4374882,2.9877686 C13.6654997,4.70545455 12.4514709,6.28694215 10.7310444,6.5141157 C10.2925199,6.57203306 9.86486571,6.6854876 9.45948242,6.85157025 C8.67284265,7.17209917 7.97369568,7.69309091 7.43601268,8.3587438 C7.21515965,8.63140496 7.02453141,8.92204959 6.8681049,9.22406612 C6.73633545,9.47900826 6.6233902,9.75272727 6.53351124,10.0357025 C5.90594928,12.0355702 6.55949395,14.1830083 8.19905591,15.5037355 C10.382664,17.2624132 13.5955055,16.9201983 15.3615343,14.7404959 C16.6948715,13.0913058 16.8597821,10.7648264 15.7727504,8.94743802 C14.8182836,7.48152066 15.2080242,5.46155372 16.6288542,4.52852893 C18.1058916,3.56059504 19.9965314,3.9178843 20.9345602,5.33963636 Z M45.565585,3.64273719 C46.4694121,4.6019438 47.1645821,5.73939835 47.6526859,7.05562975 C48.1402594,8.37212562 48.3841787,9.81741488 48.3841787,11.3909686 C48.3841787,12.8505388 48.1617349,14.2453157 47.7173775,15.5760926 C47.2722248,16.9068694 46.6414813,18.0874314 45.8238213,19.117514 C45.0061614,20.1478612 44.0090086,20.9708694 42.8328934,21.5857455 C41.6562478,22.2006215 40.3221153,22.5084562 38.8307608,22.5084562 C37.4820461,22.5084562 36.2271873,22.3005884 35.065389,21.8861752 C33.9033256,21.471762 32.949389,20.7635306 32.2035793,19.761481 L32.1174121,19.761481 L32.1174121,28.5609521 C32.1174121,30.3392 30.6724553,31.7805223 28.8899885,31.7805223 C27.1075216,31.7805223 25.6625648,30.3392 25.6625648,28.5609521 L25.6625648,3.87890248 C25.6625648,2.36167934 26.895683,1.13166281 28.4164669,1.13166281 L28.8470375,1.13166281 C30.3680865,1.13166281 31.6012046,2.36167934 31.6012046,3.87890248 L31.6871066,3.87890248 C31.9456081,3.50759669 32.2823228,3.1278281 32.6985764,2.74144793 C33.1140346,2.35506777 33.6024035,2.00491901 34.161562,1.6899438 C34.7209856,1.37523306 35.3302536,1.11764628 35.9906916,0.917183471 C36.6503343,0.717249587 37.352928,0.616489256 38.099268,0.616489256 C39.6484207,0.616489256 41.0538732,0.881480992 42.3166859,1.41067107 C43.5787032,1.94065455 44.6617579,2.68432397 45.565585,3.64273719 Z M41.3691124,15.3830347 C42.2729395,14.4103405 42.7247205,13.1369521 42.7247205,11.562605 C42.7247205,9.98905124 42.2729395,8.71539835 41.3691124,7.74217521 C40.4652853,6.76974545 39.1958444,6.28286942 37.5605245,6.28286942 C35.9252046,6.28286942 34.6557637,6.76974545 33.7522017,7.74217521 C32.8483746,8.71539835 32.3965937,9.98905124 32.3965937,11.562605 C32.3965937,13.1369521 32.8483746,14.4103405 33.7522017,15.3830347 C34.6557637,16.3562579 35.9252046,16.842605 37.5605245,16.842605 C39.1958444,16.842605 40.4652853,16.3562579 41.3691124,15.3830347 Z M68.2225602,1.13174215 C70.0050271,1.13174215 71.4499839,2.57306446 71.4499839,4.3513124 L71.4499839,19.1604364 C71.4499839,20.7252628 70.1784219,21.9936264 68.6096496,21.9936264 L68.0934421,21.9936264 C66.5249349,21.9936264 65.2531078,20.7252628 65.2531078,19.1604364 L65.1672058,19.1604364 C64.9370732,19.5616264 64.6433095,19.9620231 64.2848542,20.3624198 C63.9258686,20.7633455 63.4889349,21.1208992 62.9724622,21.4353455 C62.4559896,21.7508496 61.8676669,22.0079074 61.2080242,22.2081058 C60.5475862,22.4080397 59.8309406,22.5085355 59.0562317,22.5085355 C57.4209118,22.5085355 56.0936726,22.2578248 55.0755746,21.7574612 C54.0569464,21.2570975 53.2681856,20.5631471 52.708762,19.6756099 C52.1493383,18.7891306 51.7760357,17.7437091 51.5899147,16.5422545 C51.4029983,15.3402711 51.3102029,14.0383207 51.3102029,12.6358744 L51.3102029,4.3513124 C51.3102029,2.57306446 52.7551597,1.13174215 54.5376265,1.13174215 C56.3200934,1.13174215 57.7653153,2.57306446 57.7653153,4.3513124 L57.7653153,11.3479405 C57.7653153,11.9488 57.7867908,12.5713455 57.8297418,13.2150479 C57.8726928,13.8592793 58.0020761,14.4535273 58.2170963,14.9967339 C58.4323816,15.5404694 58.7616726,15.9839736 59.2068254,16.3275107 C59.6514478,16.6707835 60.289615,16.8424198 61.1218571,16.8424198 C61.9535689,16.8424198 62.6280588,16.692205 63.1445314,16.3917752 C63.6607389,16.091081 64.0549867,15.6909488 64.3280703,15.1897917 C64.6000934,14.6896926 64.7798513,14.1240066 64.8657533,13.4943207 C64.9519205,12.8651636 64.9948715,12.2066512 64.9948715,11.5195769 L64.9948715,4.3513124 C64.9948715,2.57306446 66.4398282,1.13174215 68.2225602,1.13174215 Z M90.9654375,12.4855537 C91.495962,13.273124 91.7616219,14.3246281 91.7616219,15.640595 C91.7616219,16.9861818 91.4670628,18.0948099 90.8792703,18.9672727 C90.2909476,19.8407934 89.5379793,20.5413554 88.6201003,21.0708099 C87.7014259,21.6005289 86.6687458,21.9720992 85.5215297,22.186843 C84.3737833,22.4013223 83.2408841,22.5084298 82.1220369,22.5084298 C80.6587862,22.5084298 79.1809533,22.300562 77.6895988,21.8861488 C77.5074548,21.8353719 77.3284922,21.7803636 77.1532415,21.7200661 C75.3087343,21.0864132 74.7151089,18.7760661 76.0208726,17.3302479 C76.9143597,16.341157 78.3794663,16.1681983 79.517668,16.864 C79.6170916,16.924562 79.7178409,16.9819504 79.8196507,17.0356364 C80.5511435,17.4220165 81.4043308,17.6150744 82.3802732,17.6150744 C83.1258179,17.6150744 83.8003078,17.5077025 84.4026824,17.2932231 C85.0053222,17.0784793 85.3065095,16.6854876 85.3065095,16.1129256 C85.3065095,15.5694545 85.0408496,15.1616529 84.5103251,14.8895207 C83.9790052,14.6179174 83.3053107,14.3888926 82.4876507,14.2024463 C81.6699908,14.0167934 80.7945326,13.8160661 79.8628669,13.6015868 C78.9298755,13.386843 78.0552127,13.0649917 77.2375527,12.6357686 C76.4198928,12.2065455 75.745668,11.5988099 75.2151435,10.8115041 C74.6838236,10.0247273 74.4189591,8.97295868 74.4189591,7.65646281 C74.4189591,6.42644628 74.6697718,5.36727273 75.1719274,4.48 C75.6735527,3.5932562 76.3337256,2.86333884 77.1513856,2.29077686 C77.9690455,1.71847934 78.9084,1.29666116 79.9702444,1.02426446 C81.0312934,0.75292562 82.1071896,0.61646281 83.1979331,0.61646281 C84.5747516,0.61646281 85.9661522,0.817190083 87.3721349,1.21758678 C87.4487573,1.23953719 87.5245844,1.26228099 87.6001464,1.28581818 C89.4759389,1.87689256 90.0605499,4.23563636 88.6619908,5.61533884 L88.5395009,5.73619835 C87.7557775,6.5094876 86.5642847,6.62082645 85.6015988,6.08502479 C84.9130571,5.70181818 84.1261522,5.51008264 83.2408841,5.51008264 C82.6955124,5.51008264 82.1649879,5.63887603 81.6485153,5.89646281 C81.1323078,6.15404959 80.8738063,6.59781818 80.8738063,7.22697521 C80.8738063,7.74214876 81.138936,8.12191736 81.6699908,8.36469421 C82.2005153,8.60826446 82.8750052,8.8227438 83.6926651,9.00866116 C84.5103251,9.19510744 85.385253,9.39477686 86.3177141,9.60952066 C87.249645,9.82426446 88.1251032,10.1609256 88.9427631,10.6181818 C89.7604231,11.0764959 90.4343827,11.6987769 90.9654375,12.4855537 Z" id="Combined-Shape"></path>
        </g>
    </g>
</svg>
