<svg width="399px" height="409px" viewBox="57 52 399 409" version="1.1" xmlns="http://www.w3.org/2000/svg" xmlns:xlink="http://www.w3.org/1999/xlink">
    <g id="Page-1" stroke="none" stroke-width="1" fill="none" fill-rule="evenodd" transform="translate(57.000000, 52.000000)">
        <path d="M158.613609,152.42361 C159.097778,152.957169 159.560655,153.73334 159.745806,154.780008 L158.357175,155.026337 C158.172024,153.979669 158.341437,153.091953 158.613609,152.42361 M159.489372,157.385524 C159.004277,156.851965 158.542326,156.075794 158.357175,155.028197 L159.745806,154.780938 C159.930031,155.828535 159.761544,156.717181 159.489372,157.385524 M150.705818,148.357778 C147.810059,150.596124 146.418651,153.845815 146.983361,157.050887 C147.512892,160.05239 149.514372,162.317692 152.371249,163.541903 C149.325519,164.398015 147.457347,165.120272 147.277751,165.190917 C143.945036,166.499717 142.298119,170.272742 143.601581,173.620965 C144.601396,176.189299 147.048164,177.760231 149.639349,177.760231 C150.423463,177.760231 151.221463,177.616151 151.996319,177.31126 C152.082414,177.277797 160.729883,173.929574 171.636191,173.585642 C175.214231,173.473167 178.022043,170.469806 177.910027,166.878042 C177.799862,163.355994 174.921693,160.575724 171.437154,160.575724 C171.367723,160.575724 171.299217,160.576653 171.229785,160.578512 C170.220713,160.611047 169.231082,160.66589 168.257189,160.736535 C170.538247,158.59951 171.650078,155.771833 171.119621,152.760106 C171.119621,152.759176 171.118695,152.758247 171.118695,152.758247 C170.553059,149.554103 168.135915,146.982051 164.650451,145.877751 C162.469375,145.186169 159.959655,145.06161 157.396242,145.518947 C154.831904,145.975353 152.518444,146.956024 150.705818,148.357778" id="Fill-1" fill="#343434"></path>
        <path d="M135.248687,149.305543 C135.703233,149.305543 136.164258,149.257207 136.62621,149.157745 C147.027982,146.896161 154.623794,141.251032 154.941328,141.012138 C157.807462,138.858382 158.391613,134.780466 156.246641,131.903523 C154.101669,129.02565 150.040386,128.440036 147.176103,130.592863 C147.120558,130.634693 141.431799,134.798127 133.8832,136.437845 C130.385701,137.199143 128.163892,140.662629 128.922084,144.174452 C129.578444,147.223361 132.264056,149.305543 135.248687,149.305543" id="Fill-3" fill="#343434"></path>
        <path d="M245.215402,154.781123 C245.399627,153.733526 245.862504,152.957355 246.347599,152.423796 C246.619771,153.092139 246.788258,153.980785 246.604033,155.028382 C246.418882,156.07598 245.956005,156.852151 245.471836,157.38571 C245.199664,156.717367 245.030251,155.828721 245.215402,154.781123 M233.324091,173.584898 C244.115606,173.926042 252.889903,177.28263 252.976924,177.317023 C253.748077,177.617267 254.541448,177.760417 255.321859,177.760417 C257.912119,177.760417 260.358887,176.188555 261.358701,173.620221 C262.662163,170.272928 261.016172,166.498973 257.682532,165.191103 C257.502935,165.120458 255.634764,164.398201 252.589033,163.542089 C255.44591,162.316948 257.44739,160.051646 257.976922,157.050144 C258.542557,153.846001 257.151149,150.59631 254.25539,148.357964 C252.442764,146.95621 250.129304,145.97461 247.566817,145.519133 C245.002478,145.062726 242.492759,145.186355 240.310757,145.877937 C236.825293,146.981308 234.407223,149.554289 233.841587,152.758433 C233.333348,155.641883 234.419258,158.554148 236.748455,160.740439 C235.760676,160.667935 234.755307,160.611233 233.731423,160.578698 C230.137645,160.437408 227.163198,163.286464 227.050256,166.878228 C226.938239,170.469992 229.746977,173.472423 233.324091,173.584898" id="Fill-5" fill="#343434"></path>
        <path d="M250.01914,141.012231 C250.337599,141.251125 257.933411,146.896254 268.334258,149.157838 C268.797135,149.2573 269.258161,149.305636 269.71178,149.305636 C272.697337,149.305636 275.382024,147.223454 276.039309,144.174545 C276.796576,140.662722 274.574766,137.198306 271.077267,136.437938 C263.576808,134.807515 257.892678,130.671968 257.767701,130.579943 C254.903418,128.441988 250.85417,129.033179 248.713826,131.903615 C246.568854,134.780559 247.153931,138.858475 250.01914,141.012231" id="Fill-7" fill="#343434"></path>
        <path d="M199.020367,179.31062 C199.624884,179.31062 200.239585,179.225101 200.848731,179.045699 L207.745599,177.011854 C209.645246,176.452267 211.199587,175.07654 211.942042,173.23511 C212.684497,171.391822 212.561371,169.336597 211.584701,167.607642 C211.576369,167.59277 210.721898,165.99767 209.79059,162.939465 C208.678759,159.28914 207.93075,155.192633 207.567854,150.76242 C207.27439,147.18181 204.144416,144.520522 200.578411,144.81147 C197.011481,145.106135 194.357344,148.247999 194.650808,151.830467 C195.083135,157.098201 195.982968,162.039665 197.328088,166.520074 L197.197557,166.558185 C193.76301,167.57139 191.796708,171.187322 192.80578,174.635006 C193.63433,177.471049 196.218109,179.31062 199.020367,179.31062" id="Fill-9" fill="#343434"></path>
        <path d="M113.295911,257.27987 C113.069101,257.412795 112.844143,257.546649 112.610853,257.68887 C112.26277,257.902665 111.919315,258.121108 111.592524,258.336763 C111.300911,258.52732 111.013002,258.723454 110.726944,258.923306 C110.323315,259.204958 109.926166,259.494977 109.536424,259.791502 C94.8761826,270.950695 90.7926814,291.427652 100.038187,307.425129 C101.240742,309.506381 103.414412,310.667383 105.649183,310.667383 C106.753607,310.667383 107.871918,310.383872 108.895802,309.787104 C111.991524,307.983786 113.044106,304.001613 111.248143,300.893213 C105.281658,290.569681 107.911726,277.358981 117.366452,270.161511 C117.616405,269.971883 117.870062,269.785974 118.126496,269.607502 C118.307944,269.480154 118.491243,269.354665 118.688429,269.226388 C118.908758,269.080449 119.133716,268.937299 119.349417,268.805304 C119.502166,268.712349 119.655842,268.619395 119.811368,268.529229 C122.905238,266.722193 123.955043,262.74002 122.155377,259.632549 C120.356637,256.526008 116.388855,255.471904 113.295911,257.27987" id="Fill-11" fill="#343434"></path>
        <path d="M291.663168,259.791595 C291.273425,259.49507 290.876277,259.205051 290.470797,258.92061 C290.18659,258.723547 289.898681,258.527413 289.619103,258.343363 C289.280277,258.121201 288.936822,257.902758 288.577629,257.681526 C288.355448,257.546742 288.13049,257.411958 287.903681,257.279963 C284.811662,255.472926 280.84388,256.526101 279.044214,259.632642 C277.244548,262.740113 278.294353,266.722285 281.388223,268.528392 C281.54375,268.619488 281.697425,268.712442 281.839066,268.79796 C282.065875,268.937392 282.289908,269.080542 282.523198,269.232988 C282.708349,269.354758 282.891648,269.480247 283.070319,269.605735 C283.32953,269.786067 283.583186,269.971976 283.83314,270.161604 C293.287866,277.358145 295.917933,290.569774 289.951448,300.893306 C288.155486,304.001706 289.208068,307.983879 292.30379,309.787197 C293.327674,310.383965 294.445984,310.666547 295.550409,310.666547 C297.785179,310.666547 299.95885,309.504615 301.161404,307.425222 C310.40691,291.427745 306.323409,270.950788 291.663168,259.791595" id="Fill-13" fill="#343434"></path>
        <path d="M228.211059,308.75159 C225.611541,306.280858 221.510451,306.392404 219.049797,309.003497 C216.589142,311.612731 216.701158,315.730618 219.300676,318.201349 C221.258646,320.063229 222.452868,322.489343 222.746332,325.13297 C222.468606,325.096718 222.188103,325.07162 221.901119,325.07162 C218.321228,325.07162 215.420841,327.983886 215.420841,331.578438 C215.420841,332.730145 215.250502,333.86419 214.914453,334.947111 C213.827618,338.447779 211.104975,341.211318 207.631546,342.338856 C206.517864,342.69952 205.350488,342.88357 204.160894,342.88357 C202.845397,342.88357 201.622476,343.280486 200.599518,343.957195 C199.577486,343.280486 198.354565,342.88357 197.038142,342.88357 C195.849474,342.88357 194.682098,342.69952 193.569342,342.339786 C190.094987,341.211318 187.371418,338.447779 186.285509,334.94897 C185.94946,333.863261 185.779121,332.729215 185.779121,331.578438 C185.779121,327.983886 182.877808,325.07162 179.298843,325.07162 C179.011859,325.07162 178.73043,325.096718 178.453629,325.13297 C178.747094,322.488413 179.941316,320.062299 181.899286,318.201349 C184.497878,315.730618 184.609894,311.612731 182.14924,309.003497 C179.688585,306.393333 175.586569,306.281788 172.988903,308.75159 C168.176834,313.325883 165.417161,319.763915 165.417161,326.414813 C165.417161,336.037467 171.028156,344.68317 179.744131,348.603063 C182.449184,351.373108 185.808745,353.49712 189.583971,354.722261 C191.986302,355.502149 194.495096,355.897206 197.038142,355.897206 C198.354565,355.897206 199.577486,355.50029 200.599518,354.822652 C201.622476,355.50029 202.845397,355.897206 204.160894,355.897206 C206.704866,355.897206 209.21366,355.502149 211.616917,354.721331 C215.391216,353.49712 218.750778,351.373108 221.455831,348.603063 C230.171806,344.68317 235.782801,336.037467 235.782801,326.414813 C235.782801,319.764845 233.023128,313.325883 228.211059,308.75159" id="Fill-15" fill="#343434"></path>
        <path d="M378.115359,225.518231 L378.115359,136.355302 C380.817635,136.687149 384.1198,137.224427 385.601006,138.038708 L385.601006,223.936145 C384.174419,224.754145 380.808377,225.238438 378.115359,225.518231 L378.115359,225.518231 Z M361.529549,241.729504 L323.148711,233.749356 C324.723419,224.877774 328.246839,202.061152 328.232953,175.665779 C328.219066,150.282681 324.529936,134.348413 322.917273,128.590808 C323.382001,128.588949 323.84673,128.535965 324.301275,128.433715 L361.553619,120.069665 C362.889482,122.215056 364.546581,126.720563 365.154802,129.681165 L365.154802,232.079893 C364.542878,235.058156 362.870041,239.599915 361.529549,241.729504 L361.529549,241.729504 Z M315.46773,272.092177 L315.454769,272.239974 C314.469767,283.623188 312.348865,308.151104 294.975238,322.071047 C294.092069,320.393218 292.489588,319.130895 290.519584,318.73119 C287.350728,318.087015 284.191129,319.901488 283.119106,322.962481 C283.066338,323.113997 278.642159,335.394222 266.206505,346.202977 C265.476085,345.64432 264.616985,345.236249 263.669013,345.027102 C260.484419,344.328083 257.273904,346.115599 256.180588,349.203549 C256.165776,349.244449 254.523489,353.549174 250.114122,358.715588 C246.494424,362.957104 240.398333,368.448858 230.926943,372.444045 C230.108577,370.637938 228.98934,368.837408 227.468326,367.427288 C225.415929,365.523579 222.379456,365.155479 219.93454,366.514474 C217.489623,367.87347 216.187087,370.651881 216.703658,373.408913 C216.709213,373.441447 217.220229,376.905863 215.774201,380.968906 C214.417045,384.780972 211.787904,387.942356 207.924732,390.421454 C207.215605,389.807954 206.365762,389.342252 205.41779,389.078261 C203.337621,388.498224 201.159322,389.015981 199.558693,390.341513 C197.966396,389.010404 195.792725,388.48614 193.707001,389.055952 C192.751623,389.317154 191.895301,389.785645 191.181544,390.403793 C181.088974,383.88489 182.210987,374.578281 182.399841,373.408913 C182.915486,370.651881 181.61295,367.87347 179.16896,366.514474 C176.723117,365.155479 173.686644,365.523579 171.634247,367.427288 C170.111382,368.839268 168.992145,370.642586 168.172853,372.451481 C148.733869,364.295649 143.157127,349.832852 142.922911,349.203549 C141.82867,346.116529 138.621858,344.328083 135.433561,345.027102 C134.485588,345.236249 133.626489,345.64432 132.896069,346.202977 C120.460414,335.395152 116.038087,323.118645 115.9918,322.986649 C114.940143,319.907065 111.784247,318.083297 108.604282,318.713529 C106.622243,319.107656 105.010505,320.379274 104.125484,322.068258 C86.7546348,308.148315 84.6328065,283.622258 83.6487299,272.239974 L83.6357694,272.093106 C83.4330292,269.749722 84.0792056,267.428647 85.3641522,265.883743 C105.353034,241.857781 130.035489,232.304843 144.341166,228.599674 C146.486138,230.759938 148.858846,232.683168 151.419482,234.33404 C123.881076,256.03242 116.357472,295.023133 134.010677,325.567997 C138.460776,333.265563 144.20508,339.955502 151.085284,345.451904 C152.277656,346.404688 153.701465,346.866672 155.116018,346.866672 C157.022145,346.866672 158.911609,346.025433 160.191001,344.409883 C161.241732,343.084352 161.686094,341.473449 161.576855,339.907165 C161.686094,338.437554 161.302832,336.923324 160.378929,335.632186 C158.2858,332.705977 156.454658,329.565972 154.93457,326.29769 C154.598521,325.573574 154.276359,324.842022 153.969008,324.102104 C152.668324,320.970465 149.214335,319.399533 146.051034,320.398795 C145.772382,319.946106 145.488175,319.498065 145.220632,319.035152 C130.647412,293.820302 137.075848,261.546483 160.174338,243.96599 C160.788113,243.499358 161.412997,243.042952 162.046213,242.599558 C162.493352,242.286302 162.946971,241.979552 163.405219,241.677449 C163.93938,241.325152 164.481871,240.98029 165.03825,240.641006 C165.289129,240.486702 165.543711,240.336115 165.798294,240.186458 C168.480203,240.727454 171.246356,241.020261 174.073609,241.020261 C180.487233,241.020261 186.646275,239.602704 192.374841,236.811279 C193.053419,236.48129 193.736626,236.125274 194.402243,235.755315 C194.711445,235.58242 195.018795,235.406736 195.315036,235.231052 C195.642753,235.037706 195.967693,234.839713 196.289855,234.638931 C196.507407,234.501358 196.716628,234.352631 196.916591,234.19089 L198.858823,232.623677 C198.903259,232.588354 198.945844,232.552102 198.988428,232.515849 C200.103036,231.567713 201.129697,230.537777 202.064709,229.440913 C202.999721,230.537777 204.025456,231.567713 205.14099,232.515849 C205.183574,232.552102 205.226159,232.588354 205.26967,232.623677 L207.212827,234.19089 C207.41279,234.352631 207.622011,234.501358 207.839563,234.638931 C208.161725,234.839713 208.486665,235.037706 208.804199,235.224545 C209.109697,235.406736 209.417048,235.58242 209.721621,235.751597 C210.391867,236.125274 211.075999,236.48129 211.749948,236.80942 C217.483143,239.602704 223.642185,241.020261 230.055809,241.020261 C232.093394,241.020261 234.100428,240.869674 236.06673,240.584304 C236.100057,240.603824 236.132458,240.623345 236.165786,240.642865 C236.715684,240.979361 237.259101,241.324222 237.794187,241.677449 C238.252435,241.979552 238.706055,242.286302 239.150417,242.59677 C239.78641,243.042952 240.411294,243.499358 241.025069,243.965061 C264.123558,261.547413 270.55292,293.820302 255.977848,319.035152 C255.711231,319.498065 255.426099,319.946106 255.148373,320.398795 C251.985071,319.399533 248.530157,320.970465 247.230398,324.102104 C246.923048,324.842022 246.600885,325.573574 246.262985,326.301408 C244.7466,329.565043 242.915458,332.704118 240.820477,335.632186 C239.896574,336.923324 239.513312,338.437554 239.622551,339.907165 C239.513312,341.473449 239.957674,343.084352 241.008405,344.409883 C242.287797,346.026363 244.176335,346.866672 246.083389,346.866672 C247.497941,346.866672 248.921751,346.404688 250.114122,345.451904 C256.995252,339.955502 262.739556,333.265563 267.187804,325.567997 C284.567911,295.496272 277.550695,257.233393 251.051911,235.349104 C253.797697,233.752145 256.351853,231.852154 258.665312,229.689102 C273.27186,234.053318 295.466813,243.921372 313.739347,265.884672 C315.024294,267.428647 315.669544,269.749722 315.46773,272.092177 L315.46773,272.092177 Z M153.361714,219.272615 C160.092871,218.315183 165.908458,213.689765 168.290424,207.163427 C168.332083,207.047233 168.373742,206.93104 168.412623,206.814847 L168.864391,205.744011 C169.112493,205.223465 169.395774,204.714074 169.705902,204.226993 C170.010475,203.750136 170.349301,203.284433 170.714048,202.84104 C173.395032,199.587631 177.341521,197.721104 181.541667,197.721104 C189.284674,197.721104 195.584431,204.045731 195.584431,211.821379 C195.584431,215.94949 193.794022,219.849863 190.668677,222.537179 L189.11341,223.792995 C188.99121,223.867358 188.868085,223.940793 188.741257,224.016086 C188.537591,224.135997 188.332999,224.254049 188.121001,224.372102 C187.662753,224.626797 187.197099,224.870338 186.71941,225.101795 C182.765514,227.029672 178.510748,228.006624 174.073609,228.006624 C166.025103,228.006624 158.657953,224.685358 153.361714,219.272615 L153.361714,219.272615 Z M247.617363,220.208668 C247.463688,220.868645 247.416475,221.529552 247.463688,222.171868 C242.588667,225.845431 236.544419,228.006624 230.055809,228.006624 C225.61867,228.006624 221.363904,227.029672 217.404454,225.099936 C216.932319,224.870338 216.466665,224.626797 216.002862,224.368383 C215.796419,224.254049 215.590902,224.135997 215.377978,224.009579 C215.256704,223.938004 215.136356,223.866429 215.016008,223.792995 L213.459816,222.537179 C210.335396,219.849863 208.544987,215.948561 208.544987,211.821379 C208.544987,204.045731 214.844744,197.721104 222.587751,197.721104 C226.787897,197.721104 230.734387,199.587631 233.416296,202.842899 C233.780117,203.284433 234.118943,203.750136 234.425368,204.230711 C234.73457,204.714074 235.015999,205.223465 235.265027,205.74494 L235.714943,206.812058 C235.755677,206.930111 235.797335,207.047233 235.83992,207.165286 C237.908055,212.834583 242.572004,217.066804 248.175593,218.708381 C247.935823,219.175013 247.741414,219.674179 247.617363,220.208668 L247.617363,220.208668 Z M88.7033471,234.323815 C87.8498019,229.878729 83.2747253,204.708497 83.2895374,175.673215 C83.3052752,146.332113 88.5654097,130.621865 88.6116974,130.484292 C88.8523935,129.79364 88.9755188,129.066736 88.9755188,128.335183 C88.9755188,127.004074 88.7542636,125.721302 88.3580408,124.513822 C96.0390223,115.337349 106.245461,110.749113 120.892742,109.807483 C124.298591,109.588111 127.167503,109.368738 130.101217,109.008074 L131.225083,108.870502 C145.607598,125.400608 167.31005,135.373702 190.866788,135.373702 C198.70237,135.373702 206.434268,134.27219 213.846781,132.100772 C214.460556,131.92137 215.071554,131.732672 215.678848,131.539327 C215.753834,131.516088 215.829746,131.490061 215.903806,131.463104 L217.175793,131.005767 C217.250779,130.978811 217.325765,130.950924 217.400751,130.920249 C218.556092,130.454547 219.702175,129.933072 220.808452,129.367908 C222.882141,128.307297 224.881769,127.061706 226.750867,125.667388 C233.745865,120.450779 238.79215,113.323024 241.451841,105.305695 C254.681793,106.700013 267.309078,108.21889 273.722702,109.008074 C276.654565,109.368738 279.523477,109.588111 282.929326,109.807483 C296.345354,110.670102 303.7986,113.857513 311.128721,122.385163 C310.146496,124.163383 309.586414,126.187004 309.586414,128.335183 C309.586414,129.054652 309.711391,129.787133 309.943755,130.466631 C309.996523,130.621865 315.256658,146.332113 315.272396,175.673215 C315.289059,207.536174 309.776194,234.756054 309.720649,235.026552 C309.631776,235.45879 309.586414,235.901254 309.586414,236.342788 C309.586414,238.029913 310.031702,239.615717 310.804707,241.004458 C310.140941,241.520356 309.450329,242.001861 308.760642,242.424804 C294.180015,229.969824 278.995797,222.806747 267.083194,218.73069 C269.415168,214.356249 271.007465,209.510529 271.674934,204.347833 C271.905447,203.173817 272.025795,201.960761 272.025795,200.719817 C272.025795,200.471629 272.021166,200.22437 272.011909,199.977111 C272.01376,199.921338 272.014686,199.864636 272.015612,199.808863 C272.023018,199.499324 272.025795,199.188856 272.025795,198.878388 C272.025795,197.986954 271.847124,197.137349 271.524962,196.363967 C270.144663,190.481804 266.003765,185.578452 260.205767,183.283404 C259.205953,182.888347 258.167257,182.578808 257.1156,182.362224 C255.88805,182.111247 254.626247,181.98297 253.36537,181.98297 C249.786405,181.98297 246.885092,184.896165 246.885092,188.489788 C246.885092,192.083411 249.786405,194.996606 253.36537,194.996606 C253.756964,194.996606 254.146707,195.035647 254.521637,195.112799 C254.837319,195.176938 255.152076,195.271752 255.454797,195.390733 C257.472015,196.189213 258.831948,198.022277 259.038391,200.153724 C259.033762,200.268058 259.028208,200.382392 259.021728,200.496727 C259.00599,200.774661 258.987475,201.051665 258.964331,201.326811 C258.942113,201.602886 258.915266,201.878961 258.884716,202.152247 C258.249649,204.618331 256.015804,206.443029 253.36537,206.443029 C250.981554,206.443029 248.829175,204.934377 248.009883,202.689524 L247.94508,202.501756 C247.886758,202.321424 247.821029,202.143881 247.746969,201.969127 L247.146155,200.545063 C247.114679,200.46884 247.081352,200.394477 247.046173,200.320113 C246.54534,199.247417 245.970447,198.19982 245.337231,197.209854 C244.750303,196.289604 244.098572,195.392592 243.402405,194.548565 C238.250584,188.293654 230.664955,184.707467 222.587751,184.707467 C214.380015,184.707467 207.021196,188.407988 202.064709,194.228802 C197.108222,188.407988 189.749403,184.707467 181.541667,184.707467 C173.464463,184.707467 165.877909,188.293654 160.727939,194.546706 C160.02992,195.392592 159.378189,196.289604 158.794039,197.206136 C158.158971,198.19982 157.583152,199.247417 157.082319,200.320113 C157.048066,200.394477 157.014739,200.46884 156.982338,200.545063 L156.381523,201.969127 C156.31024,202.138304 156.246363,202.30934 156.189892,202.485024 L156.119535,202.687665 C155.300243,204.934377 153.147865,206.443029 150.764048,206.443029 C148.112688,206.443029 145.879769,204.618331 145.244702,202.152247 C145.213226,201.877102 145.187305,201.601027 145.164161,201.318445 C145.141018,201.047947 145.122503,200.777449 145.10769,200.496727 C145.10121,200.382392 145.095656,200.268058 145.091027,200.153724 C145.296544,198.022277 146.657403,196.189213 148.671844,195.391663 C148.976417,195.271752 149.292099,195.176938 149.605004,195.112799 C149.981786,195.035647 150.371528,194.996606 150.764048,194.996606 C154.343013,194.996606 157.244326,192.083411 157.244326,188.489788 C157.244326,184.896165 154.343013,181.98297 150.764048,181.98297 C149.503171,181.98297 148.241368,182.111247 147.010115,182.362224 C145.962161,182.578808 144.92254,182.888347 143.920874,183.284333 C138.124728,185.578452 133.984755,190.481804 132.604456,196.363967 C132.281368,197.137349 132.102697,197.986954 132.102697,198.878388 C132.102697,199.188856 132.1064,199.499324 132.112881,199.802356 C132.114732,199.859988 132.115658,199.919479 132.116584,199.977111 C132.108252,200.22437 132.102697,200.471629 132.102697,200.719817 C132.102697,201.959831 132.223971,203.173817 132.453558,204.347833 C133.05067,208.969533 134.38931,213.337467 136.335245,217.34009 C124.682779,220.868645 108.834795,227.523261 93.35989,239.922467 C91.7463007,238.22047 90.1280826,236.273072 88.7033471,234.323815 L88.7033471,234.323815 Z M37.0323842,241.729504 C35.6928181,239.599915 34.0190548,235.059086 33.4071313,232.079893 L33.4071313,129.682095 C34.0153517,126.722422 35.6724515,122.214127 37.0092404,120.069665 L74.2597323,128.433715 C74.7152032,128.535965 75.1799318,128.588949 75.6446603,128.590808 C74.0319968,134.348413 70.3428668,150.282681 70.3289805,175.665779 C70.31602,201.833413 73.7774144,224.476211 75.3706371,233.509533 C75.344716,233.595981 75.3234237,233.685218 75.3012056,233.773524 L37.0323842,241.729504 Z M12.9609271,138.038708 C14.4421336,137.224427 17.7442984,136.687149 20.4465745,136.354372 L20.4465745,225.518231 C17.7535559,225.238438 14.3875142,224.754145 12.9609271,223.936145 L12.9609271,138.038708 Z M50.0586696,72.049347 L51.2612241,83.010547 L48.2784445,72.049347 L50.0586696,72.049347 Z M136.496326,13.9434607 L267.035981,13.9434607 C289.7725,13.9434607 309.652143,29.6862425 317.448844,53.4621561 C305.667697,35.6167425 286.638823,24.6323039 266.149108,24.6323039 L137.382273,24.6323039 C116.89441,24.6323039 97.8673865,35.6148834 86.0853146,53.458438 C93.8829411,29.6843834 113.760732,13.9434607 136.496326,13.9434607 L136.496326,13.9434607 Z M354.983542,69.2607107 L356.763767,69.2607107 L353.780987,80.2219107 L354.983542,69.2607107 Z M219.021746,115.221156 C217.733097,116.182306 216.354649,117.040277 214.92621,117.770899 C214.199493,118.142718 213.445929,118.487579 212.684034,118.797118 L211.646264,119.171724 C211.173203,119.321381 210.698291,119.46639 210.218751,119.607681 C203.983797,121.434238 197.472969,122.360065 190.866788,122.360065 C175.141929,122.360065 160.430772,117.107204 149.053254,108.036699 C160.091946,106.837586 169.564261,99.3454493 173.130266,88.4102766 C173.429284,87.4937448 173.685718,86.5493266 173.891236,85.5993311 C173.911602,85.5249675 173.931043,85.4496743 173.948632,85.3743811 C174.089347,84.7785425 174.251354,84.1752675 174.430025,83.5887243 C174.605918,83.0114766 174.801252,82.437947 175.009547,81.8830084 C175.261352,81.209088 175.544632,80.534238 175.84828,79.8779789 C180.689974,69.4429016 191.203762,62.9258584 202.697925,63.202863 C217.347983,63.5942016 229.592932,75.3780493 230.575157,90.0314039 C231.237997,99.9143311 226.919354,109.331556 219.021746,115.221156 L219.021746,115.221156 Z M322.325716,115.541849 C312.281284,103.111968 301.499953,97.9613561 283.757876,96.8208039 C280.576985,96.6153743 277.921923,96.413663 275.299261,96.0911107 C268.971732,95.3121516 256.630505,93.8276675 243.58663,92.446363 C243.597739,91.3550766 243.581076,90.2591425 243.507015,89.1585607 C242.080428,67.8766175 224.30595,50.760897 203.042305,50.1948039 C186.411134,49.7421152 171.123231,59.2439289 164.099535,74.3843652 C163.657025,75.3390084 163.24599,76.3196789 162.879391,77.2984902 C162.57667,78.1053357 162.294315,78.939138 162.037881,79.7785175 C161.811071,80.5221539 161.604628,81.2769448 161.419477,82.0308061 C161.36208,82.2222925 161.313015,82.4184266 161.272282,82.6182789 C161.15286,83.2066811 160.999185,83.7922948 160.814034,84.3593175 C158.52557,91.374597 151.782377,95.8038811 144.415226,95.1225243 C139.425412,94.6623993 135.05215,91.7389789 132.530396,87.6052902 C132.219342,86.9731993 131.919398,86.333672 131.630563,85.6867084 C131.382461,85.1326993 131.144542,84.573113 130.914029,84.010738 C130.600199,82.9789425 130.391904,81.906247 130.302106,80.8047357 C129.999384,77.1125811 130.928841,73.5691539 132.988644,70.5602152 C133.755168,69.441972 134.664259,68.4231902 135.69092,67.5336152 C136.812008,66.5622402 138.058999,65.7581834 139.345797,65.1651334 C139.950315,64.9178743 142.033261,64.3917516 142.817375,64.1937584 C143.269143,64.0794243 143.656108,63.981822 143.929206,63.9074584 C148.818113,62.5819266 149.380971,58.345988 148.995858,56.2916925 C148.540387,53.8627902 146.142684,50.4587948 141.415783,51.0667175 C135.027155,51.8772811 130.541876,51.4022834 130.517806,51.3985652 C128.426528,51.1531652 126.346359,51.945138 124.941064,53.5207175 C119.315257,59.8276834 116.922182,68.8730902 115.995503,73.7030084 C115.520591,76.1821061 115.615018,78.756947 116.269526,81.1505266 C116.273229,81.1644698 116.276932,81.1774834 116.280635,81.190497 C116.972173,83.7030584 117.814609,86.1960993 118.794057,88.6305789 C119.357841,90.2842402 120.070672,91.8719039 120.91496,93.3805561 C121.459303,94.4876448 122.041602,95.5714948 122.639639,96.6432607 C121.812941,96.7046107 120.963099,96.7622425 120.064192,96.8208039 C101.891639,97.990172 88.5857763,104.101933 78.6302172,115.90809 C77.9368274,115.755645 77.226774,115.644099 76.4972798,115.60134 L76.3593425,115.570665 L91.749078,70.290647 C100.041983,50.4513584 117.933106,37.6459402 137.382273,37.6459402 L266.149108,37.6459402 C285.598275,37.6459402 303.490324,50.4513584 311.783229,70.290647 L326.820252,114.534222 L322.325716,115.541849 Z M398.561563,137.122177 C398.561563,125.630206 384.453997,123.861281 376.861888,123.12694 C375.02982,116.830199 370.811159,106.634945 362.709885,106.634945 C362.234974,106.634945 361.760062,106.687929 361.296259,106.792038 L359.903925,107.105295 L371.023157,66.2285334 C371.087034,65.9970766 371.137025,65.7619016 371.174055,65.5248675 C371.533247,63.2298198 370.872259,60.8948016 369.359577,59.1184402 C367.806161,57.2937425 365.527881,56.2470743 363.109811,56.2470743 L350.855605,56.2470743 C346.494377,56.2470743 342.895045,59.5376652 342.54511,63.787547 L338.574551,99.9812584 L331.098161,54.0133766 C331.061131,53.7884266 331.012992,53.5662652 330.953744,53.345963 C326.820252,38.163697 318.556971,25.1175266 307.054477,15.617572 C295.4196,6.00886068 281.581428,0.929824318 267.035981,0.929824318 L136.496326,0.929824318 C121.950878,0.929824318 108.112707,6.00886068 96.4778297,15.617572 C84.9753355,25.1175266 76.711129,38.163697 72.5785629,53.345963 C72.5396812,53.4900425 72.5054283,53.634122 72.4767299,53.7791311 L65.1225397,90.5073311 L62.4971012,66.5761834 C62.1471661,62.3263016 58.5478343,59.0357107 54.186607,59.0357107 L41.9333262,59.0357107 C39.5143309,59.0357107 37.2360501,60.0823789 35.6826348,61.9070766 C34.1699527,63.683438 33.5089643,66.0184561 33.8681568,68.3135039 C33.905187,68.550538 33.9551777,68.785713 34.0190548,69.0171698 L44.7522473,108.473586 L37.2666,106.792038 C36.8018715,106.687929 36.3278854,106.634945 35.8520478,106.634945 C27.7498483,106.634945 23.5321128,116.830199 21.7000455,123.12694 C14.1079364,123.861281 0.000370301624,125.631136 0.000370301624,137.122177 L0.000370301624,224.639811 C0.000370301624,227.980597 1.36030302,234.014277 10.4706487,236.875418 C14.2088436,238.048504 18.4330594,238.443561 21.7194863,238.702904 C23.5617369,245.003363 27.7785466,255.127043 35.8520478,255.127043 C36.2936325,255.127043 36.7342914,255.081495 37.1666186,254.991329 L79.6726162,246.153211 C80.2271429,246.109522 80.7659318,246.014708 81.2926858,245.887361 C82.0693935,246.810399 82.8627647,247.705552 83.6653935,248.563522 C80.8603587,251.336356 78.0997601,254.315549 75.4169248,257.540143 C71.9342381,261.726815 70.2243703,267.441661 70.7242775,273.219715 L70.7363123,273.366583 C71.9657137,287.570968 75.2299225,325.304006 108.684823,339.843027 C109.299523,340.109806 109.940145,340.276195 110.585396,340.343122 C115.649271,347.962606 123.908848,357.449547 136.62408,364.711156 C136.897178,364.86639 137.177681,365.001174 137.462813,365.113649 C143.30247,372.642968 153.56538,381.986758 170.625175,387.129004 C171.049171,387.257281 171.481498,387.340011 171.915677,387.379052 C174.892902,394.053188 180.810322,400.795181 191.526851,405.108272 C192.709964,407.049163 194.807723,408.225038 197.037865,408.225038 C197.753472,408.225038 198.481115,408.105127 199.193946,407.85229 C199.317071,407.808602 199.430939,407.749111 199.552213,407.701704 C199.672561,407.749111 199.785503,407.807672 199.907702,407.851361 C200.621458,408.105127 201.350027,408.225038 202.066561,408.225038 C204.298554,408.225038 206.400015,407.047304 207.584055,405.104554 C218.295029,400.793322 224.209672,394.051329 227.186897,387.379052 C227.621076,387.340011 228.053403,387.257281 228.477398,387.129004 C245.537194,381.986758 255.800103,372.642968 261.63976,365.113649 C261.925818,365.001174 262.205396,364.86639 262.478493,364.711156 C275.193725,357.449547 283.453303,347.962606 288.517178,340.343122 C289.162428,340.276195 289.803976,340.109806 290.418677,339.843027 C323.872651,325.304006 327.137786,287.570968 328.366261,273.366583 L328.379222,273.218786 C328.879129,267.441661 327.168335,261.725886 323.685649,257.541072 C321.947083,255.451454 320.173338,253.470593 318.379226,251.57339 C320.239066,250.161411 321.918384,248.605352 323.299609,247.070672 L361.39624,254.991329 C361.828568,255.081495 362.268301,255.127043 362.709885,255.127043 C370.781535,255.127043 374.999271,245.003363 376.842447,238.702904 C380.128874,238.443561 384.35309,238.048504 388.091284,236.875418 C397.20163,234.013347 398.561563,227.980597 398.561563,224.639811 L398.561563,137.122177 Z" id="Fill-17" fill="#343434"></path>
    </g>
</svg>
